<svg id="icons" xmlns="http://www.w3.org/2000/svg" viewBox="0 0 64 64">
  <title>marker-pen</title>
  <g id="marker-pen">
    <rect
      x="1.39"
      y="21.67"
      width="57.52"
      height="10.09"
      transform="translate(-10.06 29.15) rotate(-45)"
      fill="#3dbbe8"
    />
    <rect
      x="8.53"
      y="28.8"
      width="57.52"
      height="10.09"
      transform="translate(-13.01 36.28) rotate(-45)"
      fill="#3598dc"
    />
    <line
      x1="56.23"
      y1="22.18"
      x2="49.06"
      y2="14.94"
      fill="none"
      stroke="#2979b0"
      strokeLinejoin="round"
      strokeWidth={2}
    />
    <line
      x1="49.06"
      y1="14.94"
      x2="41.82"
      y2="7.77"
      fill="none"
      stroke="#3598dc"
      strokeLinejoin="round"
      strokeWidth={2}
    />
    <polyline
      points="41.82 7.77 46.87 2.72 61.28 17.14 56.23 22.18"
      fill="none"
      stroke="#37464f"
      strokeLinejoin="round"
      strokeWidth={2}
    />
    <rect
      x="53.48"
      y="1.35"
      width="4.08"
      height="14.27"
      transform="translate(10.26 41.74) rotate(-45)"
      fill="#ffc81a"
    />
    <rect
      x="53.48"
      y="1.35"
      width="4.08"
      height="14.27"
      transform="translate(10.26 41.74) rotate(-45)"
      fill="none"
      stroke="#37464f"
      strokeLinejoin="round"
      strokeWidth={2}
    />
    <polygon
      points="8.67 59.66 3.8 62 2 60.2 4.34 55.33 8.67 59.66"
      fill="#ffc81a"
    />
    <polygon
      points="8.67 59.66 3.8 62 2 60.2 4.34 55.33 8.67 59.66"
      fill="none"
      stroke="#37464f"
      strokeLinejoin="round"
      strokeWidth={2}
    />
    <polygon
      points="6.5 43.08 6.5 50.29 13.71 57.49 20.92 57.49 6.5 43.08"
      fill="#2b7fb9"
    />
    <polygon
      points="6.5 43.08 6.5 50.29 13.71 57.49 20.92 57.49 6.5 43.08"
      fill="none"
      stroke="#37464f"
      strokeLinejoin="round"
      strokeWidth={2}
    />
    <polygon
      points="8.67 59.66 4.34 55.33 6.5 50.29 13.71 57.49 8.67 59.66"
      fill="#3598dc"
    />
    <polygon
      points="8.67 59.66 4.34 55.33 6.5 50.29 13.71 57.49 8.67 59.66"
      fill="none"
      stroke="#37464f"
      strokeLinejoin="round"
      strokeWidth={2}
    />
    <polyline
      points="41.82 7.77 6.5 43.08 20.92 57.49 56.23 22.18"
      fill="none"
      stroke="#37464f"
      strokeLinejoin="round"
      strokeWidth={2}
    />
  </g>
</svg>
